<svg width="16" height="16" viewBox="0 0 16 16" fill="none" xmlns="http://www.w3.org/2000/svg">
<g id="school, learning">
<path id="Vector" d="M10.6466 15.1667H5.31327C3.03327 15.1667 2.14661 14.28 2.14661 12V6.66669C2.14661 6.39335 2.37327 6.16669 2.64661 6.16669H13.3133C13.5866 6.16669 13.8133 6.39335 13.8133 6.66669V12C13.8133 14.28 12.9266 15.1667 10.6466 15.1667ZM3.14661 7.16669V12C3.14661 13.72 3.59327 14.1667 5.31327 14.1667H10.6466C12.3666 14.1667 12.8133 13.72 12.8133 12V7.16669H3.14661Z" fill="url(#paint0_linear_281_1460)"/>
<path id="Vector_2" d="M13 7.16665H2.99996C1.83329 7.16665 1.16663 6.49998 1.16663 5.33331V4.66665C1.16663 3.49998 1.83329 2.83331 2.99996 2.83331H13C14.1333 2.83331 14.8333 3.53331 14.8333 4.66665V5.33331C14.8333 6.46665 14.1333 7.16665 13 7.16665ZM2.99996 3.83331C2.39329 3.83331 2.16663 4.05998 2.16663 4.66665V5.33331C2.16663 5.93998 2.39329 6.16665 2.99996 6.16665H13C13.5866 6.16665 13.8333 5.91998 13.8333 5.33331V4.66665C13.8333 4.07998 13.5866 3.83331 13 3.83331H2.99996Z" fill="url(#paint1_linear_281_1460)"/>
<path id="Vector_3" d="M7.75998 3.83334H4.07998C3.93998 3.83334 3.80665 3.77334 3.71331 3.67334C3.30665 3.22667 3.31998 2.54 3.74665 2.11334L4.69331 1.16667C5.13331 0.72667 5.85998 0.72667 6.29998 1.16667L8.11331 2.98C8.25331 3.12 8.29998 3.34 8.21998 3.52667C8.14665 3.71334 7.96665 3.83334 7.75998 3.83334ZM4.44665 2.83334H6.55998L5.59331 1.87334C5.53998 1.82 5.45331 1.82 5.39998 1.87334L4.45331 2.82C4.45331 2.82667 4.44665 2.82667 4.44665 2.83334Z" fill="url(#paint2_linear_281_1460)"/>
<path id="Vector_4" d="M11.9134 3.83334H8.23339C8.03339 3.83334 7.84672 3.71334 7.77339 3.52667C7.69339 3.34 7.74006 3.12667 7.88006 2.98L9.69339 1.16667C10.1334 0.72667 10.8601 0.72667 11.3001 1.16667L12.2467 2.11334C12.6734 2.54 12.6934 3.22667 12.2801 3.67334C12.1867 3.77334 12.0534 3.83334 11.9134 3.83334ZM9.44672 2.83334H11.5601C11.5534 2.82667 11.5534 2.82667 11.5467 2.82L10.6001 1.87334C10.5467 1.82 10.4601 1.82 10.4067 1.87334L9.44672 2.83334Z" fill="url(#paint3_linear_281_1460)"/>
<path id="Vector_5" d="M6.62663 11.2667C6.43996 11.2667 6.24663 11.22 6.07329 11.1267C5.69329 10.92 5.45996 10.5267 5.45996 10.1V6.66669C5.45996 6.39335 5.68663 6.16669 5.95996 6.16669H9.98663C10.26 6.16669 10.4866 6.39335 10.4866 6.66669V10.0867C10.4866 10.52 10.2533 10.9134 9.8733 11.1134C9.4933 11.32 9.0333 11.2934 8.6733 11.0534L8.07996 10.6534C8.02663 10.6134 7.95329 10.6134 7.8933 10.6534L7.26663 11.0667C7.07329 11.2 6.84663 11.2667 6.62663 11.2667ZM6.45996 7.16669V10.0934C6.45996 10.18 6.51329 10.22 6.54663 10.24C6.57996 10.26 6.64663 10.28 6.71996 10.2334L7.34663 9.82002C7.73996 9.56002 8.24663 9.56002 8.63329 9.82002L9.22663 10.22C9.29996 10.2667 9.36663 10.2467 9.39996 10.2267C9.4333 10.2067 9.48663 10.1667 9.48663 10.08V7.16002H6.45996V7.16669Z" fill="url(#paint4_linear_281_1460)"/>
</g>
<defs>
<linearGradient id="paint0_linear_281_1460" x1="2.14661" y1="10.6667" x2="13.8133" y2="10.6667" gradientUnits="userSpaceOnUse">
<stop offset="1" stop-color="#0080FF"/>
</linearGradient>
<linearGradient id="paint1_linear_281_1460" x1="1.16663" y1="4.99998" x2="14.8333" y2="4.99998" gradientUnits="userSpaceOnUse">
<stop offset="1" stop-color="#0080FF"/>
</linearGradient>
<linearGradient id="paint2_linear_281_1460" x1="3.41724" y1="2.335" x2="8.259" y2="2.335" gradientUnits="userSpaceOnUse">
<stop offset="1" stop-color="#0080FF"/>
</linearGradient>
<linearGradient id="paint3_linear_281_1460" x1="7.73437" y1="2.335" x2="12.5787" y2="2.335" gradientUnits="userSpaceOnUse">
<stop offset="1" stop-color="#0080FF"/>
</linearGradient>
<linearGradient id="paint4_linear_281_1460" x1="5.45996" y1="8.71669" x2="10.4866" y2="8.71669" gradientUnits="userSpaceOnUse">
<stop offset="1" stop-color="#0080FF"/>
</linearGradient>
</defs>
</svg>
