<svg aria-hidden="true" style="position: absolute; width: 0; height: 0; overflow: hidden;" version="1.1" xmlns="http://www.w3.org/2000/svg" xmlns:xlink="http://www.w3.org/1999/xlink">
<defs>
<symbol id="icon-check" viewBox="0 0 32 32">
<path d="M12 24.333c-0.134-0.005-0.266-0.036-0.388-0.094s-0.23-0.139-0.319-0.24l-6.667-6.667c-0.127-0.082-0.234-0.193-0.312-0.322s-0.126-0.275-0.14-0.426c-0.014-0.151 0.007-0.303 0.061-0.445s0.139-0.269 0.249-0.373c0.11-0.104 0.243-0.182 0.387-0.227s0.298-0.057 0.447-0.035 0.293 0.079 0.418 0.164c0.125 0.086 0.229 0.199 0.304 0.33l5.96 5.92 13.96-13.92c0.188-0.122 0.411-0.177 0.634-0.157s0.433 0.115 0.596 0.269c0.163 0.154 0.269 0.358 0.303 0.579s-0.009 0.448-0.12 0.642l-14.667 14.667c-0.089 0.101-0.197 0.182-0.319 0.24s-0.253 0.089-0.388 0.094z"></path>
</symbol>
<symbol id="icon-cross" viewBox="0 0 32 32">
<path fill="none" stroke="#f40327" style="stroke: var(--color1, #f40327)" stroke-linejoin="round" stroke-linecap="round" stroke-miterlimit="4" stroke-width="3" d="M10.343 21.657l11.314-11.314"></path>
<path fill="none" stroke="#f40327" style="stroke: var(--color1, #f40327)" stroke-linejoin="round" stroke-linecap="round" stroke-miterlimit="4" stroke-width="3" d="M21.657 21.657l-11.314-11.314"></path>
</symbol>
<symbol id="icon-gift" viewBox="0 0 32 32">
<path d="M21.293 30.333h-10.667c-4.56 0-6.333-1.773-6.333-6.333v-10.667c0-0.547 0.453-1 1-1h21.333c0.547 0 1 0.453 1 1v10.667c0 4.56-1.773 6.333-6.333 6.333zM6.293 14.333v9.667c0 3.44 0.893 4.333 4.333 4.333h10.667c3.44 0 4.333-0.893 4.333-4.333v-9.667h-19.333z"></path>
<path d="M26 14.333h-20c-2.333 0-3.667-1.333-3.667-3.667v-1.333c0-2.333 1.333-3.667 3.667-3.667h20c2.267 0 3.667 1.4 3.667 3.667v1.333c0 2.267-1.4 3.667-3.667 3.667zM6 7.667c-1.213 0-1.667 0.453-1.667 1.667v1.333c0 1.213 0.453 1.667 1.667 1.667h20c1.173 0 1.667-0.493 1.667-1.667v-1.333c0-1.173-0.493-1.667-1.667-1.667h-20z"></path>
<path d="M15.52 7.667h-7.36c-0.28 0-0.547-0.12-0.733-0.32-0.813-0.893-0.787-2.267 0.067-3.12l1.893-1.893c0.88-0.88 2.333-0.88 3.213 0l3.627 3.627c0.28 0.28 0.373 0.72 0.213 1.093-0.147 0.373-0.507 0.613-0.92 0.613zM8.893 5.667h4.227l-1.933-1.92c-0.107-0.107-0.28-0.107-0.387 0l-1.893 1.893c0 0.013-0.013 0.013-0.013 0.027z"></path>
<path d="M23.827 7.667h-7.36c-0.4 0-0.773-0.24-0.92-0.613-0.16-0.373-0.067-0.8 0.213-1.093l3.627-3.627c0.88-0.88 2.333-0.88 3.213 0l1.893 1.893c0.853 0.853 0.893 2.227 0.067 3.12-0.187 0.2-0.453 0.32-0.733 0.32zM18.893 5.667h4.227c-0.013-0.013-0.013-0.013-0.027-0.027l-1.893-1.893c-0.107-0.107-0.28-0.107-0.387 0l-1.92 1.92z"></path>
<path d="M13.253 22.533c-0.373 0-0.76-0.093-1.107-0.28-0.76-0.413-1.227-1.2-1.227-2.053v-6.867c0-0.547 0.453-1 1-1h8.053c0.547 0 1 0.453 1 1v6.84c0 0.867-0.467 1.653-1.227 2.053-0.76 0.413-1.68 0.36-2.4-0.12l-1.187-0.8c-0.107-0.080-0.253-0.080-0.373 0l-1.253 0.827c-0.387 0.267-0.84 0.4-1.28 0.4zM12.92 14.333v5.853c0 0.173 0.107 0.253 0.173 0.293s0.2 0.080 0.347-0.013l1.253-0.827c0.787-0.52 1.8-0.52 2.573 0l1.187 0.8c0.147 0.093 0.28 0.053 0.347 0.013s0.173-0.12 0.173-0.293v-5.84h-6.053v0.013z"></path>
</symbol>
<symbol id="icon-hryvnia" viewBox="0 0 25 32">
<path d="M17.555 14.438l-3.854 3.125h11.32v3.438h-14.682c-0.979 0.74-1.563 1.641-1.563 2.789 0 1.969 1.563 3.036 4.352 3.036 2.378 0 4.427-1.146 6.068-3.523l4.503 3.036c-2.456 3.776-6.891 5.661-11.076 5.661-5.497 0-9.594-2.622-9.594-6.971 0.004-1.537 0.561-2.942 1.482-4.030l-0.008 0.009h-4.503v-3.445h7.216l3.94-3.125h-11.156v-3.438h14.602c1.068-0.982 1.563-1.885 1.563-2.953 0-1.719-1.563-2.951-3.94-2.951-2.299 0-4.263 1.302-5.661 3.523l-4.349-2.958c2.38-3.776 6.234-5.661 10.419-5.661 5.659 0 9.349 2.953 9.349 6.971 0 0.008 0 0.019 0 0.029 0 1.501-0.489 2.888-1.315 4.011l0.013-0.019h4.349v3.445z"></path>
</symbol>
</defs>
</svg>
